<svg width="512" height="128" viewBox="0 0 512 128" fill="none" xmlns="http://www.w3.org/2000/svg">
<path d="M111.77 33.4563L65.3102 6.64584C63.8183 5.78472 61.9775 5.78472 60.4856 6.64584L14.0284 33.4563C12.7743 34.18 12 35.5185 12 36.9683V91.0318C12 92.4793 12.7743 93.82 14.0284 94.5438L60.4878 121.354C61.9797 122.215 63.8206 122.215 65.3125 121.354L111.772 94.5438C113.026 93.82 113.8 92.4813 113.8 91.0318V36.9683C113.8 35.5207 113.026 34.18 111.772 33.4563H111.77ZM108.851 39.1353L64.0015 116.781C63.6984 117.304 62.898 117.09 62.898 116.484V65.6427C62.898 64.6267 62.3548 63.6871 61.4736 63.177L17.4244 37.7575C16.9009 37.4545 17.1147 36.6543 17.721 36.6543H107.421C108.694 36.6543 109.49 38.0344 108.853 39.1376H108.851V39.1353Z" fill="black"/>
<path d="M169.57 36.1016H189.339V46.9867H170.239C159.936 46.9867 151.894 52.9316 151.894 65.491C151.894 78.0503 159.936 83.9952 170.239 83.9952H189.339V94.8804H168.732C151.475 94.8804 139.246 84.7496 139.246 65.4932C139.246 46.2366 152.313 36.1058 169.57 36.1058V36.1016Z" fill="black"/>
<path d="M199.391 36.1016H211.62V72.0202C211.62 80.978 215.725 85.1659 225.359 85.1659C234.993 85.1659 239.097 80.9803 239.097 72.0202V36.1016H251.327V74.5316C251.327 87.5925 243.035 95.8833 225.359 95.8833C207.683 95.8833 199.391 87.5095 199.391 74.4488V36.1016Z" fill="black"/>
<path d="M315.237 52.7616C315.237 59.293 311.468 64.3158 306.441 66.4939V66.6616C311.718 67.416 314.4 71.1831 314.481 76.2911L314.733 94.8781H302.503L302.254 78.3009C302.17 74.6166 299.99 72.356 295.636 72.356H275.278V94.8781H263.051V36.1016H296.808C307.868 36.1016 315.237 41.7109 315.237 52.7638V52.7616ZM302.922 54.4381C302.922 49.4151 300.242 46.6509 295.217 46.6509H275.278V62.223H295.382C299.988 62.223 302.922 59.4608 302.922 54.4358V54.4381Z" fill="black"/>
<path d="M361.469 77.7145C361.469 73.5289 358.789 71.7696 354.77 71.4361L341.2 70.1804C329.472 69.0925 323.355 64.4861 323.355 53.3502C323.355 42.2145 330.896 36.1016 341.701 36.1016H371.69V46.6509H342.538C338.351 46.6509 335.671 48.8287 335.671 53.0146C335.671 57.2002 338.434 59.2103 342.624 59.5461L356.445 60.7188C366.917 61.6389 373.785 66.4131 373.785 77.6318C373.785 88.8504 366.498 94.8804 356.195 94.8804H324.865V84.331H355.02C358.958 84.331 361.469 81.6519 361.469 77.7168V77.7145Z" fill="black"/>
<path d="M409.56 35.1016C427.987 35.1016 439.634 46.9066 439.634 65.4111C439.634 83.9154 427.487 95.8882 409.058 95.8882C390.629 95.8882 378.984 83.9154 378.984 65.4111C378.984 46.9066 391.131 35.1016 409.56 35.1016ZM426.983 65.4939C426.983 53.1023 419.778 45.8187 409.306 45.8187C398.836 45.8187 391.63 53.1023 391.63 65.4939C391.63 77.8852 398.836 85.1688 409.306 85.1688C419.778 85.1688 426.983 77.8852 426.983 65.4939Z" fill="black"/>
<path d="M500.275 52.7616C500.275 59.293 496.506 64.3158 491.476 66.4939V66.6616C496.755 67.416 499.435 71.1831 499.519 76.2911L499.771 94.8781H487.541L487.289 78.3009C487.208 74.6166 485.027 72.356 480.673 72.356H460.316V94.8781H448.086V36.1016H481.846C492.903 36.1016 500.275 41.7109 500.275 52.7638V52.7616ZM487.959 54.4381C487.959 49.4151 485.279 46.6509 480.252 46.6509H460.316V62.223H480.419C485.025 62.223 487.959 59.4608 487.959 54.4358V54.4381Z" fill="black"/>
</svg>
